<?xml version="1.0" encoding="UTF-8" standalone="no"?>
<svg width="30px" height="27px" viewBox="0 0 30 27" version="1.1" xmlns="http://www.w3.org/2000/svg" xmlns:xlink="http://www.w3.org/1999/xlink" xmlns:sketch="http://www.bohemiancoding.com/sketch/ns">
    <!-- Generator: Sketch 3.5.1 (25234) - http://www.bohemiancoding.com/sketch -->
    <title>icon</title>
    <desc>Created with Sketch.</desc>
    <defs></defs>
    <g id="Page-1" stroke="none" stroke-width="1" fill="none" fill-rule="evenodd" sketch:type="MSPage">
        <g id="iPad-Pro-Portrait" sketch:type="MSArtboardGroup" transform="translate(-512.000000, -286.000000)" fill="#FFFFFF">
            <g id="icon" sketch:type="MSLayerGroup" transform="translate(512.000000, 286.000000)">
                <g id="Page-1" sketch:type="MSShapeGroup">
                    <g id="noun_16863_cc">
                        <path d="M27,3.5001 L27,0.1668 L16.6668,0.1668 L16.6668,3.5001 L13.3332,3.5001 L13.3332,0.1668 L3,0.1668 L3,3.5001 L2.2923,3.5001 L0,3.5001 L0,13.5 L2.2923,13.5 L3,13.5 L3,17.1669 L6.3333,17.1669 L6.3333,20.1669 L9.6666,20.1669 L9.6666,23.8335 L12.9999,23.8335 L12.9999,26.8335 L16.9998,26.8335 L16.9998,23.8335 L20.3328,23.8335 L20.3328,20.1669 L20.631,20.1669 L23.6661,20.1669 L23.6661,17.1669 L27,17.1669 L27,13.5 L27.6849,13.5 L30,13.5 L30,3.5001 L27,3.5001 L27,3.5001 Z M7.3332,7.2048 L7.3332,10.8336 L3.3333,10.8336 L3.3333,7.2048 L3.3333,3.8334 L7.3332,3.8334 L7.3332,7.2048 L7.3332,7.2048 L7.3332,7.2048 Z" id="Shape"></path>
                    </g>
                </g>
            </g>
        </g>
    </g>
</svg>